<mxfile host="app.diagrams.net" modified="2023-04-15T13:05:24.313Z" agent="Mozilla/5.0 (Windows NT 10.0; Win64; x64) AppleWebKit/537.36 (KHTML, like Gecko) Chrome/112.0.0.0 Safari/537.36" etag="y2fypIBhQM0aqDonbrks" version="21.1.8" type="device">
  <diagram name="Page-1" id="N8bPWv1JXT6RMwHiEfwe">
    <mxGraphModel dx="722" dy="344" grid="1" gridSize="1" guides="1" tooltips="1" connect="1" arrows="1" fold="1" page="1" pageScale="1" pageWidth="1169" pageHeight="827" math="0" shadow="0">
      <root>
        <mxCell id="0" />
        <mxCell id="1" parent="0" />
        <mxCell id="OXJTDrSRbwYuVg_Gjmyg-8" value="" style="pointerEvents=1;verticalLabelPosition=bottom;shadow=0;dashed=0;align=center;html=1;verticalAlign=top;shape=mxgraph.electrical.resistors.resistor_2;rotation=-90;" parent="1" vertex="1">
          <mxGeometry x="118" y="634" width="100" height="20" as="geometry" />
        </mxCell>
        <mxCell id="OXJTDrSRbwYuVg_Gjmyg-9" value="" style="verticalLabelPosition=bottom;shadow=0;dashed=0;align=center;html=1;verticalAlign=top;shape=mxgraph.electrical.opto_electronics.photo_resistor_3;rotation=-90;" parent="1" vertex="1">
          <mxGeometry x="118" y="469" width="100" height="90" as="geometry" />
        </mxCell>
        <mxCell id="OXJTDrSRbwYuVg_Gjmyg-10" value="" style="verticalLabelPosition=bottom;shadow=0;dashed=0;align=center;html=1;verticalAlign=top;shape=mxgraph.electrical.opto_electronics.photo_resistor_3;rotation=-90;" parent="1" vertex="1">
          <mxGeometry x="271" y="469" width="100" height="90" as="geometry" />
        </mxCell>
        <mxCell id="OXJTDrSRbwYuVg_Gjmyg-11" value="" style="verticalLabelPosition=bottom;shadow=0;dashed=0;align=center;html=1;verticalAlign=top;shape=mxgraph.electrical.opto_electronics.photo_resistor_3;rotation=-90;" parent="1" vertex="1">
          <mxGeometry x="424" y="469" width="100" height="90" as="geometry" />
        </mxCell>
        <mxCell id="OXJTDrSRbwYuVg_Gjmyg-12" value="" style="verticalLabelPosition=bottom;shadow=0;dashed=0;align=center;html=1;verticalAlign=top;shape=mxgraph.electrical.opto_electronics.photo_resistor_3;rotation=-90;" parent="1" vertex="1">
          <mxGeometry x="577" y="469" width="100" height="90" as="geometry" />
        </mxCell>
        <mxCell id="OXJTDrSRbwYuVg_Gjmyg-13" value="" style="pointerEvents=1;verticalLabelPosition=bottom;shadow=0;dashed=0;align=center;html=1;verticalAlign=top;shape=mxgraph.electrical.resistors.resistor_2;rotation=-90;" parent="1" vertex="1">
          <mxGeometry x="271" y="634" width="100" height="20" as="geometry" />
        </mxCell>
        <mxCell id="OXJTDrSRbwYuVg_Gjmyg-14" value="" style="pointerEvents=1;verticalLabelPosition=bottom;shadow=0;dashed=0;align=center;html=1;verticalAlign=top;shape=mxgraph.electrical.resistors.resistor_2;rotation=-90;" parent="1" vertex="1">
          <mxGeometry x="424" y="634" width="100" height="20" as="geometry" />
        </mxCell>
        <mxCell id="OXJTDrSRbwYuVg_Gjmyg-15" value="" style="pointerEvents=1;verticalLabelPosition=bottom;shadow=0;dashed=0;align=center;html=1;verticalAlign=top;shape=mxgraph.electrical.resistors.resistor_2;rotation=-90;" parent="1" vertex="1">
          <mxGeometry x="577" y="634" width="100" height="20" as="geometry" />
        </mxCell>
        <mxCell id="OXJTDrSRbwYuVg_Gjmyg-16" value="" style="endArrow=none;html=1;rounded=0;entryX=0;entryY=0.5;entryDx=0;entryDy=0;entryPerimeter=0;exitX=1;exitY=0.5;exitDx=0;exitDy=0;exitPerimeter=0;" parent="1" source="OXJTDrSRbwYuVg_Gjmyg-13" target="OXJTDrSRbwYuVg_Gjmyg-10" edge="1">
          <mxGeometry width="50" height="50" relative="1" as="geometry">
            <mxPoint x="283" y="760" as="sourcePoint" />
            <mxPoint x="333" y="710" as="targetPoint" />
          </mxGeometry>
        </mxCell>
        <mxCell id="OXJTDrSRbwYuVg_Gjmyg-18" value="" style="endArrow=none;html=1;rounded=0;entryX=0;entryY=0.5;entryDx=0;entryDy=0;entryPerimeter=0;exitX=1;exitY=0.5;exitDx=0;exitDy=0;exitPerimeter=0;" parent="1" source="OXJTDrSRbwYuVg_Gjmyg-14" target="OXJTDrSRbwYuVg_Gjmyg-11" edge="1">
          <mxGeometry width="50" height="50" relative="1" as="geometry">
            <mxPoint x="445" y="617" as="sourcePoint" />
            <mxPoint x="495" y="567" as="targetPoint" />
          </mxGeometry>
        </mxCell>
        <mxCell id="OXJTDrSRbwYuVg_Gjmyg-19" value="" style="endArrow=none;html=1;rounded=0;entryX=0;entryY=0.5;entryDx=0;entryDy=0;entryPerimeter=0;exitX=1;exitY=0.5;exitDx=0;exitDy=0;exitPerimeter=0;" parent="1" source="OXJTDrSRbwYuVg_Gjmyg-15" target="OXJTDrSRbwYuVg_Gjmyg-12" edge="1">
          <mxGeometry width="50" height="50" relative="1" as="geometry">
            <mxPoint x="609" y="619" as="sourcePoint" />
            <mxPoint x="659" y="569" as="targetPoint" />
          </mxGeometry>
        </mxCell>
        <mxCell id="OXJTDrSRbwYuVg_Gjmyg-20" value="" style="endArrow=none;html=1;rounded=0;entryX=0;entryY=0.5;entryDx=0;entryDy=0;entryPerimeter=0;exitX=0;exitY=0.5;exitDx=0;exitDy=0;exitPerimeter=0;" parent="1" source="OXJTDrSRbwYuVg_Gjmyg-63" target="OXJTDrSRbwYuVg_Gjmyg-15" edge="1">
          <mxGeometry width="50" height="50" relative="1" as="geometry">
            <mxPoint x="315" y="768" as="sourcePoint" />
            <mxPoint x="365" y="718" as="targetPoint" />
          </mxGeometry>
        </mxCell>
        <mxCell id="OXJTDrSRbwYuVg_Gjmyg-21" value="" style="pointerEvents=1;verticalLabelPosition=bottom;shadow=0;dashed=0;align=center;html=1;verticalAlign=top;shape=mxgraph.electrical.signal_sources.signal_ground;" parent="1" vertex="1">
          <mxGeometry x="375" y="694" width="45" height="30" as="geometry" />
        </mxCell>
        <mxCell id="OXJTDrSRbwYuVg_Gjmyg-36" value="" style="endArrow=none;html=1;rounded=0;" parent="1" edge="1">
          <mxGeometry width="50" height="50" relative="1" as="geometry">
            <mxPoint x="171" y="582.89" as="sourcePoint" />
            <mxPoint x="221" y="582.89" as="targetPoint" />
          </mxGeometry>
        </mxCell>
        <mxCell id="OXJTDrSRbwYuVg_Gjmyg-37" value="" style="ellipse;whiteSpace=wrap;html=1;aspect=fixed;fillColor=#080808;" parent="1" vertex="1">
          <mxGeometry x="165" y="580" width="6" height="6" as="geometry" />
        </mxCell>
        <mxCell id="OXJTDrSRbwYuVg_Gjmyg-41" value="" style="endArrow=none;html=1;rounded=0;entryX=0.5;entryY=1;entryDx=0;entryDy=0;exitX=1;exitY=0.5;exitDx=0;exitDy=0;exitPerimeter=0;" parent="1" source="OXJTDrSRbwYuVg_Gjmyg-8" target="OXJTDrSRbwYuVg_Gjmyg-37" edge="1">
          <mxGeometry width="50" height="50" relative="1" as="geometry">
            <mxPoint x="180" y="605" as="sourcePoint" />
            <mxPoint x="230" y="605" as="targetPoint" />
          </mxGeometry>
        </mxCell>
        <mxCell id="OXJTDrSRbwYuVg_Gjmyg-42" value="" style="endArrow=none;html=1;rounded=0;exitX=0;exitY=0.5;exitDx=0;exitDy=0;exitPerimeter=0;entryX=0.5;entryY=0;entryDx=0;entryDy=0;" parent="1" source="OXJTDrSRbwYuVg_Gjmyg-9" target="OXJTDrSRbwYuVg_Gjmyg-37" edge="1">
          <mxGeometry width="50" height="50" relative="1" as="geometry">
            <mxPoint x="169" y="594" as="sourcePoint" />
            <mxPoint x="168" y="579" as="targetPoint" />
          </mxGeometry>
        </mxCell>
        <mxCell id="OXJTDrSRbwYuVg_Gjmyg-43" value="" style="endArrow=none;html=1;rounded=0;" parent="1" edge="1">
          <mxGeometry width="50" height="50" relative="1" as="geometry">
            <mxPoint x="324" y="582.89" as="sourcePoint" />
            <mxPoint x="374" y="582.89" as="targetPoint" />
          </mxGeometry>
        </mxCell>
        <mxCell id="OXJTDrSRbwYuVg_Gjmyg-44" value="" style="ellipse;whiteSpace=wrap;html=1;aspect=fixed;fillColor=#080808;" parent="1" vertex="1">
          <mxGeometry x="318" y="580" width="6" height="6" as="geometry" />
        </mxCell>
        <mxCell id="OXJTDrSRbwYuVg_Gjmyg-45" value="" style="endArrow=none;html=1;rounded=0;" parent="1" edge="1">
          <mxGeometry width="50" height="50" relative="1" as="geometry">
            <mxPoint x="477" y="582.89" as="sourcePoint" />
            <mxPoint x="527" y="582.89" as="targetPoint" />
          </mxGeometry>
        </mxCell>
        <mxCell id="OXJTDrSRbwYuVg_Gjmyg-46" value="" style="ellipse;whiteSpace=wrap;html=1;aspect=fixed;fillColor=#080808;" parent="1" vertex="1">
          <mxGeometry x="471" y="580" width="6" height="6" as="geometry" />
        </mxCell>
        <mxCell id="OXJTDrSRbwYuVg_Gjmyg-47" value="" style="endArrow=none;html=1;rounded=0;" parent="1" edge="1">
          <mxGeometry width="50" height="50" relative="1" as="geometry">
            <mxPoint x="630" y="582.89" as="sourcePoint" />
            <mxPoint x="680" y="582.89" as="targetPoint" />
          </mxGeometry>
        </mxCell>
        <mxCell id="OXJTDrSRbwYuVg_Gjmyg-48" value="" style="ellipse;whiteSpace=wrap;html=1;aspect=fixed;fillColor=#080808;" parent="1" vertex="1">
          <mxGeometry x="624" y="580" width="6" height="6" as="geometry" />
        </mxCell>
        <mxCell id="OXJTDrSRbwYuVg_Gjmyg-49" value="A0" style="text;strokeColor=none;fillColor=none;html=1;fontSize=25;fontStyle=1;verticalAlign=middle;align=center;strokeWidth=1;" parent="1" vertex="1">
          <mxGeometry x="229" y="569" width="26" height="24" as="geometry" />
        </mxCell>
        <mxCell id="OXJTDrSRbwYuVg_Gjmyg-50" value="A1" style="text;strokeColor=none;fillColor=none;html=1;fontSize=25;fontStyle=1;verticalAlign=middle;align=center;strokeWidth=1;" parent="1" vertex="1">
          <mxGeometry x="384.5" y="569" width="26" height="24" as="geometry" />
        </mxCell>
        <mxCell id="OXJTDrSRbwYuVg_Gjmyg-51" value="A2" style="text;strokeColor=none;fillColor=none;html=1;fontSize=25;fontStyle=1;verticalAlign=middle;align=center;strokeWidth=1;" parent="1" vertex="1">
          <mxGeometry x="535" y="569" width="26" height="24" as="geometry" />
        </mxCell>
        <mxCell id="OXJTDrSRbwYuVg_Gjmyg-52" value="A3" style="text;strokeColor=none;fillColor=none;html=1;fontSize=25;fontStyle=1;verticalAlign=middle;align=center;strokeWidth=1;" parent="1" vertex="1">
          <mxGeometry x="686" y="570" width="26" height="24" as="geometry" />
        </mxCell>
        <mxCell id="OXJTDrSRbwYuVg_Gjmyg-54" value="" style="line;strokeWidth=1;html=1;" parent="1" vertex="1">
          <mxGeometry x="168" y="434" width="459" height="10" as="geometry" />
        </mxCell>
        <mxCell id="OXJTDrSRbwYuVg_Gjmyg-57" value="" style="endArrow=none;html=1;rounded=0;entryX=0;entryY=0.5;entryDx=0;entryDy=0;entryPerimeter=0;exitX=1;exitY=0.5;exitDx=0;exitDy=0;exitPerimeter=0;" parent="1" source="OXJTDrSRbwYuVg_Gjmyg-9" target="OXJTDrSRbwYuVg_Gjmyg-54" edge="1">
          <mxGeometry width="50" height="50" relative="1" as="geometry">
            <mxPoint x="134" y="492" as="sourcePoint" />
            <mxPoint x="184" y="442" as="targetPoint" />
          </mxGeometry>
        </mxCell>
        <mxCell id="OXJTDrSRbwYuVg_Gjmyg-58" value="" style="endArrow=none;html=1;rounded=0;entryX=1;entryY=0.5;entryDx=0;entryDy=0;entryPerimeter=0;exitX=1;exitY=0.5;exitDx=0;exitDy=0;exitPerimeter=0;" parent="1" source="OXJTDrSRbwYuVg_Gjmyg-54" target="OXJTDrSRbwYuVg_Gjmyg-12" edge="1">
          <mxGeometry width="50" height="50" relative="1" as="geometry">
            <mxPoint x="562" y="479" as="sourcePoint" />
            <mxPoint x="612" y="429" as="targetPoint" />
          </mxGeometry>
        </mxCell>
        <mxCell id="OXJTDrSRbwYuVg_Gjmyg-59" value="" style="endArrow=none;html=1;rounded=0;entryX=1;entryY=0.5;entryDx=0;entryDy=0;entryPerimeter=0;exitX=0.666;exitY=0.498;exitDx=0;exitDy=0;exitPerimeter=0;" parent="1" source="OXJTDrSRbwYuVg_Gjmyg-54" target="OXJTDrSRbwYuVg_Gjmyg-11" edge="1">
          <mxGeometry width="50" height="50" relative="1" as="geometry">
            <mxPoint x="396" y="499" as="sourcePoint" />
            <mxPoint x="446" y="449" as="targetPoint" />
          </mxGeometry>
        </mxCell>
        <mxCell id="OXJTDrSRbwYuVg_Gjmyg-60" value="" style="endArrow=none;html=1;rounded=0;exitX=1;exitY=0.5;exitDx=0;exitDy=0;exitPerimeter=0;entryX=0.333;entryY=0.489;entryDx=0;entryDy=0;entryPerimeter=0;" parent="1" source="OXJTDrSRbwYuVg_Gjmyg-10" target="OXJTDrSRbwYuVg_Gjmyg-54" edge="1">
          <mxGeometry width="50" height="50" relative="1" as="geometry">
            <mxPoint x="287" y="505" as="sourcePoint" />
            <mxPoint x="337" y="455" as="targetPoint" />
          </mxGeometry>
        </mxCell>
        <mxCell id="OXJTDrSRbwYuVg_Gjmyg-61" value="" style="line;strokeWidth=1;direction=south;html=1;" parent="1" vertex="1">
          <mxGeometry x="392.5" y="426" width="10" height="13" as="geometry" />
        </mxCell>
        <mxCell id="OXJTDrSRbwYuVg_Gjmyg-62" value="" style="ellipse;whiteSpace=wrap;html=1;aspect=fixed;fillColor=#080808;" parent="1" vertex="1">
          <mxGeometry x="394.5" y="436" width="6" height="6" as="geometry" />
        </mxCell>
        <mxCell id="OXJTDrSRbwYuVg_Gjmyg-64" value="" style="endArrow=none;html=1;rounded=0;entryX=0;entryY=0.5;entryDx=0;entryDy=0;entryPerimeter=0;exitX=0;exitY=0.5;exitDx=0;exitDy=0;exitPerimeter=0;" parent="1" source="OXJTDrSRbwYuVg_Gjmyg-8" target="OXJTDrSRbwYuVg_Gjmyg-63" edge="1">
          <mxGeometry width="50" height="50" relative="1" as="geometry">
            <mxPoint x="168" y="694" as="sourcePoint" />
            <mxPoint x="627" y="694" as="targetPoint" />
          </mxGeometry>
        </mxCell>
        <mxCell id="OXJTDrSRbwYuVg_Gjmyg-63" value="" style="ellipse;whiteSpace=wrap;html=1;aspect=fixed;fillColor=#080808;" parent="1" vertex="1">
          <mxGeometry x="394.5" y="691" width="6" height="6" as="geometry" />
        </mxCell>
        <mxCell id="OXJTDrSRbwYuVg_Gjmyg-66" value="+5V" style="text;strokeColor=none;fillColor=none;html=1;fontSize=25;fontStyle=1;verticalAlign=middle;align=center;strokeWidth=1;" parent="1" vertex="1">
          <mxGeometry x="383" y="398" width="26" height="24" as="geometry" />
        </mxCell>
        <mxCell id="qfzEbcmey9JAeRjgAz0I-4" value="10kΩ" style="text;strokeColor=none;fillColor=none;html=1;fontSize=25;fontStyle=0;verticalAlign=middle;align=center;strokeWidth=1;" vertex="1" parent="1">
          <mxGeometry x="657" y="632" width="26" height="24" as="geometry" />
        </mxCell>
        <mxCell id="qfzEbcmey9JAeRjgAz0I-7" value="10kΩ" style="text;strokeColor=none;fillColor=none;html=1;fontSize=25;fontStyle=0;verticalAlign=middle;align=center;strokeWidth=1;" vertex="1" parent="1">
          <mxGeometry x="505" y="632" width="26" height="24" as="geometry" />
        </mxCell>
        <mxCell id="qfzEbcmey9JAeRjgAz0I-8" value="10kΩ" style="text;strokeColor=none;fillColor=none;html=1;fontSize=25;fontStyle=0;verticalAlign=middle;align=center;strokeWidth=1;" vertex="1" parent="1">
          <mxGeometry x="350" y="632" width="26" height="24" as="geometry" />
        </mxCell>
        <mxCell id="qfzEbcmey9JAeRjgAz0I-9" value="10kΩ" style="text;strokeColor=none;fillColor=none;html=1;fontSize=25;fontStyle=0;verticalAlign=middle;align=center;strokeWidth=1;" vertex="1" parent="1">
          <mxGeometry x="197" y="632" width="26" height="24" as="geometry" />
        </mxCell>
      </root>
    </mxGraphModel>
  </diagram>
</mxfile>
